<?xml version="1.0" encoding="UTF-8"?>
<svg width="44px" height="38px" viewBox="0 0 44 38" version="1.1" xmlns="http://www.w3.org/2000/svg" xmlns:xlink="http://www.w3.org/1999/xlink">
    <!-- Generator: Sketch 51.2 (57519) - http://www.bohemiancoding.com/sketch -->
    <title>Scanning Icon</title>
    <desc>Created with Sketch.</desc>
    <defs></defs>
    <g id="Page-1" stroke="none" stroke-width="1" fill="none" fill-rule="evenodd">
        <g id="Group" transform="translate(-810.000000, -173.000000)" fill-rule="nonzero">
            <g id="Scanning" transform="translate(698.000000, 119.000000)">
                <g id="Scanning-Icon" transform="translate(99.000000, 38.000000)">
                    <circle id="Oval-Copy-2" cx="35" cy="35" r="35"></circle>
                    <g id="fingerprint" transform="translate(13.000000, 16.000000)" fill="#8B8B8B" fill-opacity="0.894644475">
                        <path d="M6.70546848,34.6707662 C7.73524457,36.7200706 9.79212727,38.0051345 12.0342095,37.9999846 L18.9813609,37.9999846 C23.4077965,37.9948348 26.9946609,34.3040956 27,29.7502385 L27,26.0001042 C26.9953283,25.9492922 26.9856513,25.8988235 26.970635,25.8500713 L26.970635,20.7499849 C26.9703014,19.6410465 26.3749933,18.6227458 25.4229676,18.1022658 C24.4712756,17.5817857 23.3176995,17.6442708 22.42407,18.2646583 C22.1300866,17.3854041 21.4546923,16.6970383 20.5974354,16.4031524 C19.7398448,16.1092666 18.7984973,16.2428199 18.0503578,16.7646733 C17.7720581,15.9170048 17.1363731,15.2440887 16.3204941,14.9337233 C15.5049488,14.6237012 14.5966369,14.709189 13.8494986,15.167184 L13.8494986,13.1748715 C15.6584475,12.1184618 16.7729816,10.1402256 16.7653067,7.99994021 C16.7653067,4.68617145 14.1541602,2 10.9336906,2 C7.71288712,2 5.10174062,4.68617145 5.10174062,7.99994021 C5.09406566,10.1402256 6.20859986,12.1184618 8.01754876,13.1748715 L8.01754876,25.2011879 L5.07337675,22.8634909 C3.79266365,21.8513701 1.97570603,21.9983129 0.864508894,23.2044122 C-0.246354572,24.4101681 -0.292070556,26.2847203 0.758728197,27.546438 L6.70546848,34.6707662 Z M6.55964465,7.99994021 C6.55964465,5.51461371 8.51808803,3.49998503 10.9336906,3.49998503 C13.3489594,3.49998503 15.3074026,5.51461371 15.3074026,7.99994021 C15.3144103,9.28328751 14.7828375,10.5072396 13.8494986,11.3583412 L13.8494986,8.75010447 C13.8494986,7.09322004 12.5437585,5.75013432 10.9336906,5.75013432 C9.32328885,5.75013432 8.01754876,7.09322004 8.01754876,8.75010447 L8.01754876,11.3583412 C7.08420989,10.5072396 6.55263712,9.28328751 6.55964465,7.99994021 Z M1.95067913,24.2000535 C2.55266094,23.5810393 3.50735624,23.5168375 4.18275056,24.0500206 L8.01754876,27.0959962 L8.01754876,28.2502534 C8.01754876,28.6643028 8.34390032,29.0000743 8.74666761,29.0000743 C9.14910114,29.0000743 9.47545278,28.6643028 9.47545278,28.2502534 L9.47545278,8.75010447 C9.47545278,7.92166221 10.1284897,7.25011935 10.9336906,7.25011935 C11.7385576,7.25011935 12.3915946,7.92166221 12.3915946,8.75010447 L12.3915946,21.5001491 C12.3915946,21.9141984 12.7179462,22.2499699 13.1203798,22.2499699 C13.5231471,22.2499699 13.8494986,21.9141984 13.8494986,21.5001491 L13.8494986,17.7500147 C13.8494986,16.9215726 14.5022018,16.2500297 15.3074026,16.2500297 C16.1126036,16.2500297 16.7653067,16.9215726 16.7653067,17.7500147 L16.7653067,21.5001491 C16.7653067,21.9141984 17.0916583,22.2499699 17.4940919,22.2499699 C17.8968591,22.2499699 18.2232108,21.9141984 18.2232108,21.5001491 L18.2232108,19.2499998 C18.2232108,18.4215576 18.875914,17.7500147 19.6811148,17.7500147 C20.4863156,17.7500147 21.1390188,18.4215576 21.1390188,19.2499998 L21.1390188,21.5001491 C21.1390188,21.9141984 21.4653705,22.2499699 21.8681378,22.2499699 C22.2705713,22.2499699 22.596923,21.9141984 22.596923,21.5001491 L22.596923,20.7499849 C22.596923,19.9215426 23.2496261,19.2499998 24.054827,19.2499998 C24.8600278,19.2499998 25.512731,19.9215426 25.512731,20.7499849 L25.512731,29.0000743 C25.517069,29.0508863 25.5270798,29.1013551 25.542096,29.1501071 L25.542096,29.7502385 C25.5374242,33.4759967 22.6029294,36.4955364 18.9813609,36.4999995 L12.0342095,36.4999995 C10.3116871,36.5044628 8.73632311,35.5022984 7.97016433,33.9147656 C7.94313523,33.8608635 7.90943228,33.8103949 7.87039015,33.7647327 L1.86458633,26.570023 C1.29130207,25.8768507 1.32867566,24.8475636 1.95067913,24.2000535 Z" id="Shape"></path>
                        <path d="M21,9.00022887 C21,9.55230035 20.5523002,10 19.9997711,10 C19.4476997,10 19,9.55230035 19,9.00022887 C19,8.44769977 19.4476997,8 19.9997711,8 C20.5523002,8 21,8.44769977 21,9.00022887 Z" id="Shape"></path>
                        <path d="M23,9.00022887 C23,9.55230035 22.5523003,10 22.0002289,10 C21.4476997,10 21,9.55230035 21,9.00022887 C21,8.44769977 21.4476997,8 22.0002289,8 C22.5523003,8 23,8.44769977 23,9.00022887 Z" id="Shape"></path>
                        <path d="M27,9.00022887 C27,9.55230035 26.5523003,10 26.0002289,10 C25.4476997,10 25,9.55230035 25,9.00022887 C25,8.44769977 25.4476997,8 26.0002289,8 C26.5523003,8 27,8.44769977 27,9.00022887 Z" id="Shape"></path>
                        <path d="M36,5.20424986e-17 C31.5815231,5.20424986e-17 28,3.58159759 28,8.00016645 C28,12.4184024 31.5815231,16 36,16 C40.418144,16 44,12.4184024 44,8.00016645 C43.9946733,3.58392808 40.4158135,0.00499388304 36,5.20424986e-17 Z M36,14.5454546 C32.3848523,14.5454546 29.4545152,11.6150565 29.4545152,8.00016645 C29.4545152,4.38494346 32.3848523,1.45454544 36,1.45454544 C39.6148148,1.45454544 42.5451519,4.38494346 42.5451519,8.00016645 C42.540824,11.613059 39.6131502,14.5411266 36,14.5454546 Z" id="Shape"></path>
                        <path d="M38.8216066,4.29754692 L34.6890118,10.3355925 L33.1303948,8.39735592 C32.8686913,8.0828625 32.4527751,8.08742038 32.1953468,8.40723136 C31.9379185,8.72742205 31.9345594,9.24474097 32.1874071,9.57062912 L33.7515208,11.5160823 C34.2456122,12.126078 35.0328604,12.1640602 35.5632909,11.6034416 C35.5901636,11.5749549 35.6148987,11.5438093 35.6374963,11.5103849 L39.8400211,5.37054676 C40.0797378,5.02110963 40.046147,4.49657415 39.7655104,4.19879295 C39.4845685,3.90101174 39.0628502,3.94241242 38.8234388,4.29184955 L38.8216066,4.29754692 Z" id="Shape"></path>
                    </g>
                </g>
            </g>
        </g>
    </g>
</svg>