<svg width="396" height="312" viewBox="0 0 396 312" fill="none" xmlns="http://www.w3.org/2000/svg">
<path d="M189.9 9C190.1 9 190.4 9 190.6 9" stroke="#BABABA" stroke-width="14" stroke-miterlimit="10" stroke-linecap="round" stroke-linejoin="round"/>
<path d="M218.9 8.59998C258.5 8.19998 298.2 7.79999 339 7.79999C361.1 7.79999 379 20 385.6 39.9C387.3 44.9 388.1 50.5 388.1 55.8C388.3 121.9 388.3 187.9 388.2 254C388.2 281.4 367.4 302 339.7 302C294.5 302.1 255.4 304.1 210.2 304.1C159 304.1 107.8 304.1 56.6 304.1C32.8 304.1 14.1 289.5 8.80002 266.9C8.50002 265.5 8.00001 264 7.70001 262.6C7.70001 259 7.70001 255.4 7.70001 251.7" stroke="#BABABA" stroke-width="14" stroke-miterlimit="10" stroke-linecap="round" stroke-linejoin="round"/>
<path d="M7.70001 221.9C7.70001 165 7.70001 108.2 7.70001 51.3C9.10001 46.9 9.90002 42.3 11.9 38.1C19.9 20.9 33.6 11.6 52.5 9.99998C54 9.89998 55.5 9.89999 57 9.89999C92 9.89999 126.3 9.59999 160.3 9.29999" stroke="#BABABA" stroke-width="14" stroke-miterlimit="10" stroke-linecap="round" stroke-linejoin="round"/>
<path d="M72.7 258.7C85.1 247.2 96.1 234.6 106.8 221.8" stroke="#BABABA" stroke-width="14" stroke-miterlimit="10" stroke-linecap="round" stroke-linejoin="round"/>
<path d="M121 204.8C131.7 192.1 142.6 179.5 154.9 167.9C156.3 166.6 157.8 165.2 159.3 163.9C167.6 171.3 184.1 184.4 192.1 191.6C198.6 197.5 206.5 199.6 210.3 191.6C215.3 181.3 229.3 137.6 235.4 117C236.6 118.1 237.6 119 238.6 120C266.5 156 306.6 223.7 328.4 257.4" stroke="#BABABA" stroke-width="14" stroke-miterlimit="10" stroke-linecap="round" stroke-linejoin="round"/>
<path d="M312.9 101.9C323.946 101.9 332.9 92.9457 332.9 81.9C332.9 70.8543 323.946 61.9 312.9 61.9C301.854 61.9 292.9 70.8543 292.9 81.9C292.9 92.9457 301.854 101.9 312.9 101.9Z" fill="#BABABA"/>
</svg>
