<svg width="512" height="512" viewBox="0 0 512 512" fill="none" xmlns="http://www.w3.org/2000/svg">
<circle cx="256" cy="256" r="256" fill="white"/>
<mask id="path-2-inside-1" fill="white">
<rect x="96" y="115.143" width="320" height="171.429" rx="30"/>
</mask>
<rect x="96" y="115.143" width="320" height="171.429" rx="30" stroke="#041330" stroke-width="76" mask="url(#path-2-inside-1)"/>
<path d="M256.381 90L339.19 183.143H173.572L256.381 90Z" fill="white"/>
<path d="M256.381 313.238L173.572 220.095H339.189L256.381 313.238Z" fill="white"/>
<circle cx="256.381" cy="200.857" r="28.5714" fill="#041330"/>
<path d="M99.0461 376.7C96.2128 376.7 93.4628 376.35 90.7961 375.65C88.1294 374.95 85.9628 374.017 84.2961 372.85L87.5461 365.55C89.1128 366.583 90.9294 367.417 92.9961 368.05C95.0628 368.683 97.0961 369 99.0961 369C102.896 369 104.796 368.05 104.796 366.15C104.796 365.15 104.246 364.417 103.146 363.95C102.079 363.45 100.346 362.933 97.9461 362.4C95.3128 361.833 93.1128 361.233 91.3461 360.6C89.5794 359.933 88.0628 358.883 86.7961 357.45C85.5294 356.017 84.8961 354.083 84.8961 351.65C84.8961 349.517 85.4794 347.6 86.6461 345.9C87.8128 344.167 89.5461 342.8 91.8461 341.8C94.1794 340.8 97.0294 340.3 100.396 340.3C102.696 340.3 104.963 340.567 107.196 341.1C109.429 341.6 111.396 342.35 113.096 343.35L110.046 350.7C106.713 348.9 103.479 348 100.346 348C98.3794 348 96.9461 348.3 96.0461 348.9C95.1461 349.467 94.6961 350.217 94.6961 351.15C94.6961 352.083 95.2294 352.783 96.2961 353.25C97.3628 353.717 99.0794 354.2 101.446 354.7C104.113 355.267 106.313 355.883 108.046 356.55C109.813 357.183 111.329 358.217 112.596 359.65C113.896 361.05 114.546 362.967 114.546 365.4C114.546 367.5 113.963 369.4 112.796 371.1C111.629 372.8 109.879 374.167 107.546 375.2C105.213 376.2 102.379 376.7 99.0461 376.7ZM136.119 374.9C135.319 375.4 134.336 375.783 133.169 376.05C132.036 376.317 130.819 376.45 129.519 376.45C125.986 376.45 123.269 375.583 121.369 373.85C119.502 372.117 118.569 369.533 118.569 366.1V342.85H128.069V349.9H134.219V357H128.069V366C128.069 367 128.319 367.767 128.819 368.3C129.319 368.833 130.002 369.1 130.869 369.1C131.969 369.1 132.936 368.817 133.769 368.25L136.119 374.9ZM168.263 348.9V376H159.213V373.1C158.213 374.2 157.013 375.033 155.613 375.6C154.213 376.167 152.73 376.45 151.163 376.45C147.663 376.45 144.863 375.417 142.763 373.35C140.696 371.283 139.663 368.183 139.663 364.05V348.9H149.163V362.5C149.163 364.533 149.546 366.017 150.313 366.95C151.08 367.883 152.196 368.35 153.663 368.35C155.163 368.35 156.38 367.833 157.313 366.8C158.28 365.733 158.763 364.117 158.763 361.95V348.9H168.263ZM203.182 338.9V376H194.132V373.3C192.365 375.4 189.715 376.45 186.182 376.45C183.715 376.45 181.465 375.883 179.432 374.75C177.399 373.583 175.782 371.933 174.582 369.8C173.415 367.667 172.832 365.2 172.832 362.4C172.832 359.6 173.415 357.15 174.582 355.05C175.782 352.917 177.399 351.283 179.432 350.15C181.465 349.017 183.715 348.45 186.182 348.45C189.415 348.45 191.915 349.383 193.682 351.25V338.9H203.182ZM188.182 368.9C189.815 368.9 191.165 368.333 192.232 367.2C193.299 366.033 193.832 364.433 193.832 362.4C193.832 360.4 193.299 358.833 192.232 357.7C191.199 356.567 189.849 356 188.182 356C186.515 356 185.149 356.567 184.082 357.7C183.015 358.833 182.482 360.4 182.482 362.4C182.482 364.433 183.015 366.033 184.082 367.2C185.149 368.333 186.515 368.9 188.182 368.9ZM209.294 348.9H218.794V376H209.294V348.9ZM214.044 345.9C212.311 345.9 210.911 345.417 209.844 344.45C208.777 343.483 208.244 342.283 208.244 340.85C208.244 339.417 208.777 338.217 209.844 337.25C210.911 336.283 212.311 335.8 214.044 335.8C215.777 335.8 217.177 336.267 218.244 337.2C219.311 338.1 219.844 339.267 219.844 340.7C219.844 342.2 219.311 343.45 218.244 344.45C217.177 345.417 215.777 345.9 214.044 345.9ZM238.568 376.45C235.668 376.45 233.051 375.85 230.718 374.65C228.385 373.45 226.551 371.783 225.218 369.65C223.918 367.517 223.268 365.1 223.268 362.4C223.268 359.733 223.918 357.333 225.218 355.2C226.551 353.067 228.368 351.417 230.668 350.25C233.001 349.05 235.635 348.45 238.568 348.45C241.501 348.45 244.135 349.05 246.468 350.25C248.801 351.417 250.618 353.067 251.918 355.2C253.218 357.3 253.868 359.7 253.868 362.4C253.868 365.1 253.218 367.517 251.918 369.65C250.618 371.783 248.801 373.45 246.468 374.65C244.135 375.85 241.501 376.45 238.568 376.45ZM238.568 368.9C240.235 368.9 241.601 368.333 242.668 367.2C243.735 366.033 244.268 364.433 244.268 362.4C244.268 360.4 243.735 358.833 242.668 357.7C241.601 356.567 240.235 356 238.568 356C236.901 356 235.535 356.567 234.468 357.7C233.401 358.833 232.868 360.4 232.868 362.4C232.868 364.433 233.401 366.033 234.468 367.2C235.535 368.333 236.901 368.9 238.568 368.9ZM288.57 366.7H283.17V376H273.27V341H289.27C292.436 341 295.186 341.533 297.52 342.6C299.853 343.633 301.653 345.133 302.92 347.1C304.186 349.033 304.82 351.317 304.82 353.95C304.82 356.483 304.22 358.7 303.02 360.6C301.853 362.467 300.17 363.933 297.97 365L305.52 376H294.92L288.57 366.7ZM294.82 353.95C294.82 352.317 294.303 351.05 293.27 350.15C292.236 349.25 290.703 348.8 288.67 348.8H283.17V359.05H288.67C290.703 359.05 292.236 358.617 293.27 357.75C294.303 356.85 294.82 355.583 294.82 353.95ZM324.331 369.2C325.631 369.2 326.748 369.017 327.681 368.65C328.648 368.283 329.615 367.683 330.581 366.85L335.531 372.05C332.965 374.983 329.131 376.45 324.031 376.45C320.865 376.45 318.081 375.85 315.681 374.65C313.281 373.45 311.415 371.783 310.081 369.65C308.781 367.517 308.131 365.1 308.131 362.4C308.131 359.733 308.781 357.35 310.081 355.25C311.381 353.117 313.165 351.45 315.431 350.25C317.731 349.05 320.298 348.45 323.131 348.45C325.765 348.45 328.165 349 330.331 350.1C332.531 351.167 334.281 352.75 335.581 354.85C336.881 356.917 337.531 359.383 337.531 362.25L318.181 365.95C319.215 368.117 321.265 369.2 324.331 369.2ZM323.181 355.2C321.548 355.2 320.215 355.717 319.181 356.75C318.148 357.75 317.565 359.2 317.431 361.1L328.431 358.95C328.098 357.817 327.465 356.917 326.531 356.25C325.598 355.55 324.481 355.2 323.181 355.2ZM358.961 348.45C361.428 348.45 363.661 349.033 365.661 350.2C367.695 351.333 369.295 352.967 370.461 355.1C371.661 357.2 372.261 359.65 372.261 362.45C372.261 365.25 371.661 367.717 370.461 369.85C369.295 371.95 367.695 373.583 365.661 374.75C363.661 375.883 361.428 376.45 358.961 376.45C355.795 376.45 353.278 375.5 351.411 373.6V385.7H341.911V348.9H350.961V351.6C352.728 349.5 355.395 348.45 358.961 348.45ZM356.961 368.9C358.628 368.9 359.995 368.333 361.061 367.2C362.128 366.033 362.661 364.45 362.661 362.45C362.661 360.45 362.128 358.883 361.061 357.75C359.995 356.583 358.628 356 356.961 356C355.295 356 353.928 356.583 352.861 357.75C351.795 358.883 351.261 360.45 351.261 362.45C351.261 364.45 351.795 366.033 352.861 367.2C353.928 368.333 355.295 368.9 356.961 368.9ZM385.727 352.15C386.694 350.917 387.944 350 389.477 349.4C391.044 348.767 392.827 348.45 394.827 348.45V357C393.96 356.9 393.244 356.85 392.677 356.85C390.644 356.85 389.044 357.4 387.877 358.5C386.744 359.6 386.177 361.283 386.177 363.55V376H376.677V348.9H385.727V352.15ZM412.103 376.45C409.203 376.45 406.586 375.85 404.253 374.65C401.92 373.45 400.086 371.783 398.753 369.65C397.453 367.517 396.803 365.1 396.803 362.4C396.803 359.733 397.453 357.333 398.753 355.2C400.086 353.067 401.903 351.417 404.203 350.25C406.536 349.05 409.17 348.45 412.103 348.45C415.036 348.45 417.67 349.05 420.003 350.25C422.336 351.417 424.153 353.067 425.453 355.2C426.753 357.3 427.403 359.7 427.403 362.4C427.403 365.1 426.753 367.517 425.453 369.65C424.153 371.783 422.336 373.45 420.003 374.65C417.67 375.85 415.036 376.45 412.103 376.45ZM412.103 368.9C413.77 368.9 415.136 368.333 416.203 367.2C417.27 366.033 417.803 364.433 417.803 362.4C417.803 360.4 417.27 358.833 416.203 357.7C415.136 356.567 413.77 356 412.103 356C410.436 356 409.07 356.567 408.003 357.7C406.936 358.833 406.403 360.4 406.403 362.4C406.403 364.433 406.936 366.033 408.003 367.2C409.07 368.333 410.436 368.9 412.103 368.9Z" fill="#041330"/>
</svg>
