<svg width="512" height="512" viewBox="0 0 512 512" fill="none" xmlns="http://www.w3.org/2000/svg">
<rect width="512" height="512" rx="30" fill="#17212C"/>
<path d="M64.2217 266.06C79.3584 275.825 94.7393 282.254 110.364 285.347C115.654 286.405 121.025 286.934 126.478 286.934C131.93 286.934 137.545 286.445 143.323 285.469C149.183 284.411 154.35 282.702 158.826 280.342C168.917 274.971 173.963 266.711 173.963 255.562C173.963 244.087 165.499 236.071 148.572 231.514C143.608 230.212 138.318 229.032 132.703 227.974L115.247 224.922C93.0303 221.097 77.5273 215.482 68.7383 208.076C60.6003 201.322 56.5312 192.207 56.5312 180.732C56.5312 165.107 64.0182 152.453 78.9922 142.769C92.3385 134.061 108.086 129.707 126.233 129.707C143.649 129.707 159.314 132.555 173.23 138.252C178.195 140.205 183.362 142.646 188.733 145.576L180.433 165.474C168.632 158.394 154.716 153.796 138.685 151.68C133.639 150.947 128.756 150.581 124.036 150.581C113.213 150.581 103.65 152.656 95.3496 156.807C85.6654 161.689 80.8232 168.444 80.8232 177.07C80.8232 186.185 86.9674 192.858 99.2559 197.09C104.79 199.043 111.056 200.63 118.055 201.851L139.783 205.635C158.094 209.053 170.789 212.918 177.869 217.231C184.949 221.545 190.158 226.387 193.494 231.758C196.912 237.048 198.621 244.128 198.621 252.998C198.621 261.787 196.546 269.681 192.396 276.68C188.245 283.678 182.711 289.456 175.794 294.014C162.285 303.047 145.073 307.563 124.158 307.563C104.627 307.563 86.2757 303.332 69.1045 294.868C63.4893 292.101 58.2809 288.927 53.4795 285.347L64.2217 266.06ZM238.782 114.448H259.168V362.007H238.782V114.448ZM456.556 185.371C456.556 211.006 444.756 228.706 421.155 238.472L453.992 305H427.747L398.084 244.819C390.027 246.04 381.604 246.65 372.815 246.65H327.894V305H305.311V132.148H376.233C401.787 132.148 420.87 135.648 433.484 142.646C448.865 151.11 456.556 165.352 456.556 185.371ZM375.867 226.143C394.096 226.143 407.605 223.62 416.395 218.574C427.218 212.308 432.63 201.729 432.63 186.836C432.63 167.467 420.097 156.481 395.032 153.877C387.789 153.063 380.343 152.656 372.693 152.656H327.894V226.143H375.867Z" fill="url(#paint0_linear)"/>
<defs>
<linearGradient id="paint0_linear" x1="255" y1="71" x2="255" y2="365" gradientUnits="userSpaceOnUse">
<stop stop-color="#FD65B7" stop-opacity="0.57"/>
<stop offset="0.524862" stop-color="#6D3AE1" stop-opacity="0.89"/>
<stop offset="1" stop-color="#1B99CC"/>
</linearGradient>
</defs>
</svg>
