<svg width="512" height="512" viewBox="0 0 512 512" fill="none" xmlns="http://www.w3.org/2000/svg">
<rect width="512" height="512" rx="30" fill="#17212C"/>
<path d="M341.411 75.0981V302.684C388.017 279.48 412.636 265.588 454.408 239.554C442.913 156.931 414.265 119.88 341.411 75.0981Z" fill="#22A9FB"/>
<path d="M139.289 94.1963C222.033 140.646 280.099 188.252 341.411 232.658V75.0982C264.46 48.4125 220.43 46.4254 139.289 94.1963Z" fill="#6D3AE1"/>
<path d="M171.119 435.31C236.534 471.159 326.465 453.917 369.528 418.865L170.589 304.806L171.119 435.31Z" fill="#6D3AE1"/>
<path d="M215.151 330.271L369.528 418.865C434.387 366.949 453.838 323.942 454.408 239.554C361.325 296.385 309.061 324.211 215.151 330.271Z" fill="#FD65F5"/>
<path d="M176.424 200.828L171.119 435.841C101.334 394.738 74.0105 360.355 57.061 272.976L176.424 200.828Z" fill="#22A9FB"/>
<path d="M138.759 93.6658C70.1357 154.997 59.0758 195.874 57.061 272.976C136.639 231.709 194.091 212.549 274.037 168.997L138.759 93.6658Z" fill="#FD65F5"/>
<path d="M171.119 223.419V300.801C171.119 317.37 184.551 330.801 201.119 330.801H311.942C328.51 330.801 341.942 317.37 341.942 300.801V223.847C341.942 212.919 335.999 202.855 326.43 197.578L269.264 166.05C260.046 160.966 248.838 161.085 239.731 166.364L186.075 197.464C176.818 202.83 171.119 212.719 171.119 223.419Z" fill="#17212C"/>
<circle cx="256" cy="256" r="195" stroke="#17212C" stroke-width="10"/>
</svg>
