<svg width="702" height="926" viewBox="0 0 702 926" fill="none" xmlns="http://www.w3.org/2000/svg">
<rect x="41" width="620" height="620" rx="30" fill="#17212C"/>
<path d="M444.952 56.0079V306.353C496.219 280.828 523.299 265.547 569.249 236.91C556.604 146.024 525.091 105.267 444.952 56.0079Z" fill="#22A9FB"/>
<path d="M222.618 77.0159C313.636 128.111 377.509 180.477 444.952 229.324V56.008C360.306 26.6537 311.873 24.4679 222.618 77.0159Z" fill="#6D3AE1"/>
<path d="M257.631 452.241C329.588 491.675 428.511 472.708 475.881 434.151L257.048 308.687L257.631 452.241Z" fill="#6D3AE1"/>
<path d="M306.066 336.698L475.881 434.151C547.226 377.043 568.622 329.737 569.249 236.91C466.858 299.423 409.367 330.032 306.066 336.698Z" fill="#FD65F5"/>
<path d="M263.467 194.31L257.631 452.825C180.867 407.611 150.811 369.79 132.167 273.674L263.467 194.31Z" fill="#22A9FB"/>
<path d="M222.034 76.4324C146.549 143.897 134.383 188.861 132.167 273.674C219.703 228.28 282.9 207.204 370.841 159.297L222.034 76.4324Z" fill="#FD65F5"/>
<path d="M257.631 217.432V307.281C257.631 323.85 271.063 337.281 287.631 337.281H415.536C432.104 337.281 445.536 323.85 445.536 307.281V217.86C445.536 206.932 439.593 196.868 430.024 191.591L364.104 155.235C354.887 150.152 343.679 150.271 334.572 155.55L272.587 191.477C263.33 196.843 257.631 206.733 257.631 217.432Z" fill="#17212C"/>
<circle cx="351" cy="255" r="215" stroke="#17212C" stroke-width="10"/>
<path d="M130.66 559.6C127.42 559.6 124.28 559.14 121.24 558.22C118.24 557.3 115.86 556.08 114.1 554.56L116.8 548.5C118.52 549.86 120.62 550.98 123.1 551.86C125.62 552.7 128.14 553.12 130.66 553.12C133.78 553.12 136.1 552.62 137.62 551.62C139.18 550.62 139.96 549.3 139.96 547.66C139.96 546.46 139.52 545.48 138.64 544.72C137.8 543.92 136.72 543.3 135.4 542.86C134.08 542.42 132.28 541.92 130 541.36C126.8 540.6 124.2 539.84 122.2 539.08C120.24 538.32 118.54 537.14 117.1 535.54C115.7 533.9 115 531.7 115 528.94C115 526.62 115.62 524.52 116.86 522.64C118.14 520.72 120.04 519.2 122.56 518.08C125.12 516.96 128.24 516.4 131.92 516.4C134.48 516.4 137 516.72 139.48 517.36C141.96 518 144.1 518.92 145.9 520.12L143.44 526.18C141.6 525.1 139.68 524.28 137.68 523.72C135.68 523.16 133.74 522.88 131.86 522.88C128.78 522.88 126.48 523.4 124.96 524.44C123.48 525.48 122.74 526.86 122.74 528.58C122.74 529.78 123.16 530.76 124 531.52C124.88 532.28 125.98 532.88 127.3 533.32C128.62 533.76 130.42 534.26 132.7 534.82C135.82 535.54 138.38 536.3 140.38 537.1C142.38 537.86 144.08 539.04 145.48 540.64C146.92 542.24 147.64 544.4 147.64 547.12C147.64 549.44 147 551.54 145.72 553.42C144.48 555.3 142.58 556.8 140.02 557.92C137.46 559.04 134.34 559.6 130.66 559.6ZM163.308 523.6H149.388V517H185.028V523.6H171.108V559H163.308V523.6ZM208.18 559.6C202.38 559.6 197.86 557.98 194.62 554.74C191.38 551.46 189.76 546.78 189.76 540.7V517H197.56V540.4C197.56 548.64 201.12 552.76 208.24 552.76C215.32 552.76 218.86 548.64 218.86 540.4V517H226.54V540.7C226.54 546.78 224.92 551.46 221.68 554.74C218.48 557.98 213.98 559.6 208.18 559.6ZM237.464 517H255.824C260.304 517 264.284 517.88 267.764 519.64C271.244 521.36 273.944 523.82 275.864 527.02C277.784 530.18 278.744 533.84 278.744 538C278.744 542.16 277.784 545.84 275.864 549.04C273.944 552.2 271.244 554.66 267.764 556.42C264.284 558.14 260.304 559 255.824 559H237.464V517ZM255.464 552.4C258.544 552.4 261.244 551.82 263.564 550.66C265.924 549.46 267.724 547.78 268.964 545.62C270.244 543.42 270.884 540.88 270.884 538C270.884 535.12 270.244 532.6 268.964 530.44C267.724 528.24 265.924 526.56 263.564 525.4C261.244 524.2 258.544 523.6 255.464 523.6H245.264V552.4H255.464ZM287.035 517H294.835V559H287.035V517ZM325.815 559.6C321.535 559.6 317.675 558.68 314.235 556.84C310.795 554.96 308.095 552.38 306.135 549.1C304.175 545.78 303.195 542.08 303.195 538C303.195 533.92 304.175 530.24 306.135 526.96C308.095 523.64 310.795 521.06 314.235 519.22C317.675 517.34 321.535 516.4 325.815 516.4C330.095 516.4 333.955 517.34 337.395 519.22C340.835 521.06 343.535 523.62 345.495 526.9C347.455 530.18 348.435 533.88 348.435 538C348.435 542.12 347.455 545.82 345.495 549.1C343.535 552.38 340.835 554.96 337.395 556.84C333.955 558.68 330.095 559.6 325.815 559.6ZM325.815 552.76C328.615 552.76 331.135 552.14 333.375 550.9C335.615 549.62 337.375 547.86 338.655 545.62C339.935 543.34 340.575 540.8 340.575 538C340.575 535.2 339.935 532.68 338.655 530.44C337.375 528.16 335.615 526.4 333.375 525.16C331.135 523.88 328.615 523.24 325.815 523.24C323.015 523.24 320.495 523.88 318.255 525.16C316.015 526.4 314.255 528.16 312.975 530.44C311.695 532.68 311.055 535.2 311.055 538C311.055 540.8 311.695 543.34 312.975 545.62C314.255 547.86 316.015 549.62 318.255 550.9C320.495 552.14 323.015 552.76 325.815 552.76ZM400.765 559L392.185 546.7C391.825 546.74 391.285 546.76 390.565 546.76H381.085V559H373.285V517H390.565C394.205 517 397.365 517.6 400.045 518.8C402.765 520 404.845 521.72 406.285 523.96C407.725 526.2 408.445 528.86 408.445 531.94C408.445 535.1 407.665 537.82 406.105 540.1C404.585 542.38 402.385 544.08 399.505 545.2L409.165 559H400.765ZM400.585 531.94C400.585 529.26 399.705 527.2 397.945 525.76C396.185 524.32 393.605 523.6 390.205 523.6H381.085V540.34H390.205C393.605 540.34 396.185 539.62 397.945 538.18C399.705 536.7 400.585 534.62 400.585 531.94ZM448.671 552.46V559H417.171V517H447.831V523.54H424.971V534.46H445.251V540.88H424.971V552.46H448.671ZM474.647 517C478.287 517 481.447 517.6 484.127 518.8C486.847 520 488.927 521.72 490.367 523.96C491.807 526.2 492.527 528.86 492.527 531.94C492.527 534.98 491.807 537.64 490.367 539.92C488.927 542.16 486.847 543.88 484.127 545.08C481.447 546.28 478.287 546.88 474.647 546.88H465.167V559H457.367V517H474.647ZM474.287 540.28C477.687 540.28 480.267 539.56 482.027 538.12C483.787 536.68 484.667 534.62 484.667 531.94C484.667 529.26 483.787 527.2 482.027 525.76C480.267 524.32 477.687 523.6 474.287 523.6H465.167V540.28H474.287ZM527.796 559L519.216 546.7C518.856 546.74 518.316 546.76 517.596 546.76H508.116V559H500.316V517H517.596C521.236 517 524.396 517.6 527.076 518.8C529.796 520 531.876 521.72 533.316 523.96C534.756 526.2 535.476 528.86 535.476 531.94C535.476 535.1 534.696 537.82 533.136 540.1C531.616 542.38 529.416 544.08 526.536 545.2L536.196 559H527.796ZM527.616 531.94C527.616 529.26 526.736 527.2 524.976 525.76C523.216 524.32 520.636 523.6 517.236 523.6H508.116V540.34H517.236C520.636 540.34 523.216 539.62 524.976 538.18C526.736 536.7 527.616 534.62 527.616 531.94ZM563.823 559.6C559.543 559.6 555.683 558.68 552.243 556.84C548.803 554.96 546.103 552.38 544.143 549.1C542.183 545.78 541.203 542.08 541.203 538C541.203 533.92 542.183 530.24 544.143 526.96C546.103 523.64 548.803 521.06 552.243 519.22C555.683 517.34 559.543 516.4 563.823 516.4C568.103 516.4 571.963 517.34 575.403 519.22C578.843 521.06 581.543 523.62 583.503 526.9C585.463 530.18 586.443 533.88 586.443 538C586.443 542.12 585.463 545.82 583.503 549.1C581.543 552.38 578.843 554.96 575.403 556.84C571.963 558.68 568.103 559.6 563.823 559.6ZM563.823 552.76C566.623 552.76 569.143 552.14 571.383 550.9C573.623 549.62 575.383 547.86 576.663 545.62C577.943 543.34 578.583 540.8 578.583 538C578.583 535.2 577.943 532.68 576.663 530.44C575.383 528.16 573.623 526.4 571.383 525.16C569.143 523.88 566.623 523.24 563.823 523.24C561.023 523.24 558.503 523.88 556.263 525.16C554.023 526.4 552.263 528.16 550.983 530.44C549.703 532.68 549.063 535.2 549.063 538C549.063 540.8 549.703 543.34 550.983 545.62C552.263 547.86 554.023 549.62 556.263 550.9C558.503 552.14 561.023 552.76 563.823 552.76Z" fill="white"/>
<path d="M70.3522 807L57.5522 789C56.1122 789.16 54.6189 789.24 53.0722 789.24H38.0322V807H32.1122V751H53.0722C60.2189 751 65.8189 752.707 69.8722 756.12C73.9255 759.533 75.9522 764.227 75.9522 770.2C75.9522 774.573 74.8322 778.28 72.5922 781.32C70.4055 784.307 67.2589 786.467 63.1522 787.8L76.8322 807H70.3522ZM52.9122 784.2C58.4589 784.2 62.6989 782.973 65.6322 780.52C68.5655 778.067 70.0322 774.627 70.0322 770.2C70.0322 765.667 68.5655 762.2 65.6322 759.8C62.6989 757.347 58.4589 756.12 52.9122 756.12H38.0322V784.2H52.9122ZM129.525 801.88V807H89.9247V751H128.325V756.12H95.8447V776.04H124.805V781.08H95.8447V801.88H129.525ZM154.32 756.12H134.64V751H179.92V756.12H160.24V807H154.32V756.12ZM213.077 807.48C207.53 807.48 202.49 806.253 197.957 803.8C193.477 801.293 189.957 797.88 187.397 793.56C184.89 789.24 183.637 784.387 183.637 779C183.637 773.613 184.89 768.76 187.397 764.44C189.957 760.12 193.477 756.733 197.957 754.28C202.49 751.773 207.53 750.52 213.077 750.52C218.623 750.52 223.61 751.747 228.037 754.2C232.517 756.653 236.037 760.067 238.597 764.44C241.157 768.76 242.437 773.613 242.437 779C242.437 784.387 241.157 789.267 238.597 793.64C236.037 797.96 232.517 801.347 228.037 803.8C223.61 806.253 218.623 807.48 213.077 807.48ZM213.077 802.2C217.503 802.2 221.503 801.213 225.077 799.24C228.65 797.213 231.45 794.44 233.477 790.92C235.503 787.347 236.517 783.373 236.517 779C236.517 774.627 235.503 770.68 233.477 767.16C231.45 763.587 228.65 760.813 225.077 758.84C221.503 756.813 217.503 755.8 213.077 755.8C208.65 755.8 204.623 756.813 200.997 758.84C197.423 760.813 194.597 763.587 192.517 767.16C190.49 770.68 189.477 774.627 189.477 779C189.477 783.373 190.49 787.347 192.517 790.92C194.597 794.44 197.423 797.213 200.997 799.24C204.623 801.213 208.65 802.2 213.077 802.2ZM278.266 807.48C271.013 807.48 265.359 805.4 261.306 801.24C257.253 797.08 255.226 791.027 255.226 783.08V751H261.146V782.84C261.146 789.347 262.613 794.2 265.546 797.4C268.479 800.6 272.719 802.2 278.266 802.2C283.866 802.2 288.133 800.6 291.066 797.4C293.999 794.2 295.466 789.347 295.466 782.84V751H301.226V783.08C301.226 791.027 299.199 797.08 295.146 801.24C291.146 805.4 285.519 807.48 278.266 807.48ZM343.385 807.48C337.839 807.48 332.825 806.253 328.345 803.8C323.919 801.347 320.425 797.96 317.865 793.64C315.359 789.267 314.105 784.387 314.105 779C314.105 773.613 315.359 768.76 317.865 764.44C320.425 760.067 323.945 756.653 328.425 754.2C332.905 751.747 337.919 750.52 343.465 750.52C347.625 750.52 351.465 751.213 354.985 752.6C358.505 753.987 361.492 756.013 363.945 758.68L360.185 762.44C355.812 758.013 350.292 755.8 343.625 755.8C339.199 755.8 335.172 756.813 331.545 758.84C327.919 760.867 325.065 763.64 322.985 767.16C320.959 770.68 319.945 774.627 319.945 779C319.945 783.373 320.959 787.32 322.985 790.84C325.065 794.36 327.919 797.133 331.545 799.16C335.172 801.187 339.199 802.2 343.625 802.2C350.345 802.2 355.865 799.96 360.185 795.48L363.945 799.24C361.492 801.907 358.479 803.96 354.905 805.4C351.385 806.787 347.545 807.48 343.385 807.48ZM423.365 751V807H417.525V781.16H382.485V807H376.565V751H382.485V775.96H417.525V751H423.365ZM441.643 751H447.563V807H441.643V751ZM512.584 751V807H507.704L471.704 761.56V807H465.784V751H470.664L506.744 796.44V751H512.584ZM570.302 779H575.982V800.36C573.369 802.653 570.276 804.413 566.702 805.64C563.129 806.867 559.369 807.48 555.422 807.48C549.822 807.48 544.782 806.253 540.302 803.8C535.822 801.347 532.302 797.96 529.742 793.64C527.182 789.267 525.902 784.387 525.902 779C525.902 773.613 527.182 768.76 529.742 764.44C532.302 760.067 535.822 756.653 540.302 754.2C544.782 751.747 549.849 750.52 555.502 750.52C559.769 750.52 563.689 751.213 567.262 752.6C570.836 753.933 573.849 755.933 576.302 758.6L572.622 762.36C568.196 757.987 562.569 755.8 555.742 755.8C551.209 755.8 547.102 756.813 543.422 758.84C539.796 760.813 536.942 763.587 534.862 767.16C532.782 770.68 531.742 774.627 531.742 779C531.742 783.373 532.782 787.32 534.862 790.84C536.942 794.36 539.796 797.133 543.422 799.16C547.049 801.187 551.129 802.2 555.662 802.2C561.422 802.2 566.302 800.76 570.302 797.88V779ZM653.755 807.88L645.995 799.88C641.248 804.947 635.008 807.48 627.275 807.48C623.648 807.48 620.395 806.893 617.515 805.72C614.688 804.493 612.475 802.813 610.875 800.68C609.275 798.493 608.475 796.013 608.475 793.24C608.475 789.88 609.541 786.867 611.675 784.2C613.808 781.533 617.435 778.733 622.555 775.8C619.888 773.027 618.048 770.68 617.035 768.76C616.021 766.787 615.515 764.707 615.515 762.52C615.515 758.947 616.795 756.067 619.355 753.88C621.915 751.693 625.355 750.6 629.675 750.6C633.675 750.6 636.848 751.587 639.195 753.56C641.541 755.533 642.715 758.253 642.715 761.72C642.715 764.493 641.781 767 639.915 769.24C638.048 771.427 634.821 773.853 630.235 776.52L645.595 792.36C647.301 789.32 648.555 785.72 649.355 781.56L653.995 783C652.981 788.013 651.328 792.307 649.035 795.88L657.035 804.12L653.755 807.88ZM629.675 754.84C626.901 754.84 624.715 755.533 623.115 756.92C621.568 758.307 620.795 760.147 620.795 762.44C620.795 764.093 621.221 765.667 622.075 767.16C622.928 768.653 624.608 770.68 627.115 773.24C631.168 770.893 633.968 768.893 635.515 767.24C637.061 765.587 637.835 763.773 637.835 761.8C637.835 759.667 637.115 757.987 635.675 756.76C634.235 755.48 632.235 754.84 629.675 754.84ZM627.595 802.76C633.781 802.76 638.795 800.653 642.635 796.44L625.755 779.08C621.328 781.587 618.261 783.853 616.555 785.88C614.901 787.907 614.075 790.173 614.075 792.68C614.075 795.72 615.301 798.173 617.755 800.04C620.261 801.853 623.541 802.76 627.595 802.76ZM9.29969 849H32.0997C38.0197 849 43.2464 850.2 47.7797 852.6C52.313 854.947 55.833 858.253 58.3397 862.52C60.8464 866.733 62.0997 871.56 62.0997 877C62.0997 882.44 60.8464 887.293 58.3397 891.56C55.833 895.773 52.313 899.08 47.7797 901.48C43.2464 903.827 38.0197 905 32.0997 905H9.29969V849ZM31.7797 899.88C36.6864 899.88 40.9797 898.92 44.6597 897C48.3397 895.027 51.193 892.333 53.2197 888.92C55.2464 885.453 56.2597 881.48 56.2597 877C56.2597 872.52 55.2464 868.573 53.2197 865.16C51.193 861.693 48.3397 859 44.6597 857.08C40.9797 855.107 36.6864 854.12 31.7797 854.12H15.2197V899.88H31.7797ZM85.4922 854.12H65.8122V849H111.092V854.12H91.4122V905H85.4922V854.12ZM141.51 849C148.656 849 154.256 850.707 158.31 854.12C162.363 857.533 164.39 862.227 164.39 868.2C164.39 874.173 162.363 878.867 158.31 882.28C154.256 885.64 148.656 887.32 141.51 887.32H126.47V905H120.55V849H141.51ZM141.35 882.12C146.896 882.12 151.136 880.92 154.07 878.52C157.003 876.067 158.47 872.627 158.47 868.2C158.47 863.667 157.003 860.2 154.07 857.8C151.136 855.347 146.896 854.12 141.35 854.12H126.47V882.12H141.35ZM214.349 905.48C210.189 905.48 206.189 904.813 202.349 903.48C198.562 902.147 195.629 900.387 193.549 898.2L195.869 893.64C197.896 895.667 200.589 897.32 203.949 898.6C207.309 899.827 210.776 900.44 214.349 900.44C219.362 900.44 223.122 899.533 225.629 897.72C228.136 895.853 229.389 893.453 229.389 890.52C229.389 888.28 228.696 886.493 227.309 885.16C225.976 883.827 224.322 882.813 222.349 882.12C220.376 881.373 217.629 880.573 214.109 879.72C209.896 878.653 206.536 877.64 204.029 876.68C201.522 875.667 199.362 874.147 197.549 872.12C195.789 870.093 194.909 867.347 194.909 863.88C194.909 861.053 195.656 858.493 197.149 856.2C198.642 853.853 200.936 851.987 204.029 850.6C207.122 849.213 210.962 848.52 215.549 848.52C218.749 848.52 221.869 848.973 224.909 849.88C228.002 850.733 230.669 851.933 232.909 853.48L230.909 858.2C228.562 856.653 226.056 855.507 223.389 854.76C220.722 853.96 218.109 853.56 215.549 853.56C210.642 853.56 206.936 854.52 204.429 856.44C201.976 858.307 200.749 860.733 200.749 863.72C200.749 865.96 201.416 867.773 202.749 869.16C204.136 870.493 205.842 871.533 207.869 872.28C209.949 872.973 212.722 873.747 216.189 874.6C220.296 875.613 223.602 876.627 226.109 877.64C228.669 878.6 230.829 880.093 232.589 882.12C234.349 884.093 235.229 886.787 235.229 890.2C235.229 893.027 234.456 895.613 232.909 897.96C231.416 900.253 229.096 902.093 225.949 903.48C222.802 904.813 218.936 905.48 214.349 905.48ZM269.088 849C276.234 849 281.834 850.707 285.888 854.12C289.941 857.533 291.968 862.227 291.968 868.2C291.968 874.173 289.941 878.867 285.888 882.28C281.834 885.64 276.234 887.32 269.088 887.32H254.048V905H248.128V849H269.088ZM268.928 882.12C274.474 882.12 278.714 880.92 281.648 878.52C284.581 876.067 286.048 872.627 286.048 868.2C286.048 863.667 284.581 860.2 281.648 857.8C278.714 855.347 274.474 854.12 268.928 854.12H254.048V882.12H268.928ZM344.368 899.88V905H304.768V849H343.168V854.12H310.688V874.04H339.648V879.08H310.688V899.88H344.368ZM382.292 905.48C376.745 905.48 371.732 904.253 367.252 901.8C362.825 899.347 359.332 895.96 356.772 891.64C354.265 887.267 353.012 882.387 353.012 877C353.012 871.613 354.265 866.76 356.772 862.44C359.332 858.067 362.852 854.653 367.332 852.2C371.812 849.747 376.825 848.52 382.372 848.52C386.532 848.52 390.372 849.213 393.892 850.6C397.412 851.987 400.398 854.013 402.852 856.68L399.092 860.44C394.718 856.013 389.198 853.8 382.532 853.8C378.105 853.8 374.078 854.813 370.452 856.84C366.825 858.867 363.972 861.64 361.892 865.16C359.865 868.68 358.852 872.627 358.852 877C358.852 881.373 359.865 885.32 361.892 888.84C363.972 892.36 366.825 895.133 370.452 897.16C374.078 899.187 378.105 900.2 382.532 900.2C389.252 900.2 394.772 897.96 399.092 893.48L402.852 897.24C400.398 899.907 397.385 901.96 393.812 903.4C390.292 904.787 386.452 905.48 382.292 905.48ZM415.472 849H421.392V905H415.472V849ZM474.732 890.04H443.532L436.812 905H430.652L456.252 849H462.092L487.692 905H481.452L474.732 890.04ZM472.572 885.24L459.132 855.16L445.692 885.24H472.572ZM496.956 849H502.876V899.88H534.236V905H496.956V849ZM544.065 849H549.985V905H544.065V849ZM583.646 905.48C579.486 905.48 575.486 904.813 571.646 903.48C567.859 902.147 564.926 900.387 562.846 898.2L565.166 893.64C567.193 895.667 569.886 897.32 573.246 898.6C576.606 899.827 580.073 900.44 583.646 900.44C588.659 900.44 592.419 899.533 594.926 897.72C597.433 895.853 598.686 893.453 598.686 890.52C598.686 888.28 597.993 886.493 596.606 885.16C595.273 883.827 593.619 882.813 591.646 882.12C589.673 881.373 586.926 880.573 583.406 879.72C579.193 878.653 575.833 877.64 573.326 876.68C570.819 875.667 568.659 874.147 566.846 872.12C565.086 870.093 564.206 867.347 564.206 863.88C564.206 861.053 564.953 858.493 566.446 856.2C567.939 853.853 570.233 851.987 573.326 850.6C576.419 849.213 580.259 848.52 584.846 848.52C588.046 848.52 591.166 848.973 594.206 849.88C597.299 850.733 599.966 851.933 602.206 853.48L600.206 858.2C597.859 856.653 595.353 855.507 592.686 854.76C590.019 853.96 587.406 853.56 584.846 853.56C579.939 853.56 576.233 854.52 573.726 856.44C571.273 858.307 570.046 860.733 570.046 863.72C570.046 865.96 570.713 867.773 572.046 869.16C573.433 870.493 575.139 871.533 577.166 872.28C579.246 872.973 582.019 873.747 585.486 874.6C589.593 875.613 592.899 876.627 595.406 877.64C597.966 878.6 600.126 880.093 601.886 882.12C603.646 884.093 604.526 886.787 604.526 890.2C604.526 893.027 603.753 895.613 602.206 897.96C600.713 900.253 598.393 902.093 595.246 903.48C592.099 904.813 588.233 905.48 583.646 905.48ZM627.523 854.12H607.843V849H653.123V854.12H633.443V905H627.523V854.12ZM677.162 905.48C673.002 905.48 669.002 904.813 665.162 903.48C661.375 902.147 658.442 900.387 656.362 898.2L658.682 893.64C660.708 895.667 663.402 897.32 666.762 898.6C670.122 899.827 673.588 900.44 677.162 900.44C682.175 900.44 685.935 899.533 688.442 897.72C690.948 895.853 692.202 893.453 692.202 890.52C692.202 888.28 691.508 886.493 690.122 885.16C688.788 883.827 687.135 882.813 685.162 882.12C683.188 881.373 680.442 880.573 676.922 879.72C672.708 878.653 669.348 877.64 666.842 876.68C664.335 875.667 662.175 874.147 660.362 872.12C658.602 870.093 657.722 867.347 657.722 863.88C657.722 861.053 658.468 858.493 659.962 856.2C661.455 853.853 663.748 851.987 666.842 850.6C669.935 849.213 673.775 848.52 678.362 848.52C681.562 848.52 684.682 848.973 687.722 849.88C690.815 850.733 693.482 851.933 695.722 853.48L693.722 858.2C691.375 856.653 688.868 855.507 686.202 854.76C683.535 853.96 680.922 853.56 678.362 853.56C673.455 853.56 669.748 854.52 667.242 856.44C664.788 858.307 663.562 860.733 663.562 863.72C663.562 865.96 664.228 867.773 665.562 869.16C666.948 870.493 668.655 871.533 670.682 872.28C672.762 872.973 675.535 873.747 679.002 874.6C683.108 875.613 686.415 876.627 688.922 877.64C691.482 878.6 693.642 880.093 695.402 882.12C697.162 884.093 698.042 886.787 698.042 890.2C698.042 893.027 697.268 895.613 695.722 897.96C694.228 900.253 691.908 902.093 688.762 903.48C685.615 904.813 681.748 905.48 677.162 905.48Z" fill="url(#paint0_linear)"/>
<defs>
<linearGradient id="paint0_linear" x1="745" y1="688.5" x2="-101.5" y2="960" gradientUnits="userSpaceOnUse">
<stop stop-color="#FD65F5"/>
<stop offset="0.480663" stop-color="#6D3AE1"/>
<stop offset="1" stop-color="#22A9FB"/>
</linearGradient>
</defs>
</svg>
