<svg width="1372" height="831" viewBox="0 0 1372 831" fill="none" xmlns="http://www.w3.org/2000/svg">
<path d="M261.555 312.695C285.773 328.32 310.383 338.607 335.383 343.555C343.846 345.247 352.44 346.094 361.164 346.094C369.888 346.094 378.872 345.312 388.117 343.75C397.492 342.057 405.76 339.323 412.922 335.547C429.068 326.953 437.141 313.737 437.141 295.898C437.141 277.539 423.599 264.714 396.516 257.422C388.573 255.339 380.109 253.451 371.125 251.758L343.195 246.875C307.648 240.755 282.844 231.771 268.781 219.922C255.76 209.115 249.25 194.531 249.25 176.172C249.25 151.172 261.229 130.924 285.188 115.43C306.542 101.497 331.737 94.5312 360.773 94.5312C388.638 94.5312 413.703 99.0885 435.969 108.203C443.911 111.328 452.18 115.234 460.773 119.922L447.492 151.758C428.612 140.43 406.346 133.073 380.695 129.688C372.622 128.516 364.81 127.93 357.258 127.93C339.94 127.93 324.641 131.25 311.359 137.891C295.865 145.703 288.117 156.51 288.117 170.312C288.117 184.896 297.948 195.573 317.609 202.344C326.464 205.469 336.49 208.008 347.688 209.961L382.453 216.016C411.75 221.484 432.062 227.669 443.391 234.57C454.719 241.471 463.052 249.219 468.391 257.812C473.859 266.276 476.594 277.604 476.594 291.797C476.594 305.859 473.273 318.49 466.633 329.688C459.992 340.885 451.138 350.13 440.07 357.422C418.456 371.875 390.917 379.102 357.453 379.102C326.203 379.102 296.841 372.331 269.367 358.789C260.383 354.362 252.049 349.284 244.367 343.555L261.555 312.695ZM540.852 70.1172H573.469V466.211H540.852V70.1172ZM889.289 183.594C889.289 224.609 870.409 252.93 832.648 268.555L885.188 375H843.195L795.734 278.711C782.844 280.664 769.367 281.641 755.305 281.641H683.43V375H647.297V98.4375H760.773C801.659 98.4375 832.193 104.036 852.375 115.234C876.984 128.776 889.289 151.562 889.289 183.594ZM760.188 248.828C789.354 248.828 810.969 244.792 825.031 236.719C842.349 226.693 851.008 209.766 851.008 185.938C851.008 154.948 830.956 137.37 790.852 133.203C779.263 131.901 767.349 131.25 755.109 131.25H683.43V248.828H760.188Z" fill="url(#paint0_linear)"/>
<path d="M545.344 573.203C551.096 576.914 556.941 579.357 562.878 580.532C564.889 580.934 566.93 581.135 569.001 581.135C571.073 581.135 573.207 580.949 575.403 580.578C577.629 580.176 579.593 579.527 581.294 578.63C585.129 576.589 587.046 573.45 587.046 569.213C587.046 564.853 583.83 561.807 577.397 560.075C575.511 559.58 573.501 559.132 571.367 558.73L564.734 557.57C556.292 556.117 550.4 553.983 547.061 551.169C543.968 548.602 542.422 545.139 542.422 540.778C542.422 534.841 545.267 530.032 550.957 526.352C556.029 523.043 562.013 521.389 568.909 521.389C575.527 521.389 581.479 522.471 586.768 524.636C588.654 525.378 590.618 526.306 592.659 527.419L589.504 534.98C585.02 532.29 579.732 530.542 573.64 529.738C571.723 529.46 569.867 529.321 568.074 529.321C563.961 529.321 560.327 530.109 557.173 531.687C553.493 533.542 551.653 536.109 551.653 539.387C551.653 542.85 553.988 545.386 558.657 546.994C560.76 547.736 563.141 548.339 565.801 548.803L574.058 550.241C581.016 551.54 585.84 553.009 588.53 554.648C591.221 556.287 593.2 558.127 594.468 560.168C595.767 562.178 596.416 564.868 596.416 568.239C596.416 571.579 595.627 574.579 594.05 577.238C592.473 579.898 590.37 582.093 587.742 583.825C582.608 587.258 576.068 588.974 568.12 588.974C560.698 588.974 553.725 587.366 547.2 584.15C545.066 583.098 543.087 581.892 541.262 580.532L545.344 573.203ZM630.51 530.109H605.833V522.316H663.77V530.109H639.092V588H630.51V530.109ZM674.021 522.316H682.603V556.318C682.603 568.255 686.576 575.97 694.524 579.465C697.245 580.64 700.461 581.228 704.172 581.228C707.883 581.228 711.038 580.686 713.635 579.604C716.264 578.522 718.429 576.96 720.129 574.919C723.438 570.992 725.093 565.255 725.093 557.709V522.316H733.674V556.318C733.674 572.058 728 582.186 716.65 586.701C712.878 588.186 708.517 588.928 703.569 588.928C698.621 588.928 694.307 588.216 690.627 586.794C686.978 585.34 683.932 583.269 681.489 580.578C676.51 575.135 674.021 567.513 674.021 557.709V522.316ZM749.307 522.316H776.257C786.308 522.316 794.395 525.131 800.518 530.759C806.857 536.573 810.027 544.35 810.027 554.091C810.027 564.389 806.78 572.631 800.286 578.815C793.884 584.938 785.442 588 774.958 588H749.307V522.316ZM776.118 580.207C783.818 580.207 789.895 577.888 794.348 573.249C798.739 568.672 800.935 562.472 800.935 554.648C800.935 547.102 798.507 541.103 793.652 536.65C788.921 532.29 782.674 530.109 774.912 530.109H757.888V580.207H776.118ZM823.525 522.316H832.107V588H823.525V522.316ZM857.48 579.697C854.264 576.759 851.713 573.264 849.827 569.213C847.971 565.162 847.043 561.08 847.043 556.967C847.043 552.854 847.461 549.298 848.296 546.298C849.162 543.268 850.383 540.485 851.96 537.949C853.538 535.382 855.424 533.078 857.62 531.037C859.815 528.996 862.258 527.264 864.949 525.842C870.577 522.873 876.715 521.389 883.364 521.389C889.735 521.389 895.672 522.811 901.177 525.656C906.527 528.439 910.794 532.305 913.979 537.253C917.227 542.417 918.85 548.154 918.85 554.462C918.85 564.451 915.325 572.723 908.274 579.279C903.852 583.392 898.517 586.222 892.271 587.768C889.147 588.541 885.529 588.928 881.416 588.928C877.303 588.928 873.097 588.124 868.799 586.516C864.5 584.877 860.728 582.604 857.48 579.697ZM863.835 536.325C861.454 538.583 859.568 541.258 858.176 544.35C856.816 547.443 856.135 550.844 856.135 554.555C856.135 558.266 856.847 561.745 858.269 564.992C859.692 568.239 861.64 571.069 864.114 573.481C869.402 578.645 875.819 581.228 883.364 581.228C890.693 581.228 896.909 578.815 902.012 573.991C907.176 569.105 909.758 563.059 909.758 555.854C909.758 550.968 908.521 546.438 906.047 542.263C903.728 538.304 900.465 535.119 896.26 532.707C892.116 530.295 887.879 529.089 883.55 529.089C879.22 529.089 875.448 529.738 872.231 531.037C869.046 532.305 866.248 534.068 863.835 536.325ZM1018.3 542.541C1018.3 552.282 1013.82 559.008 1004.85 562.719L1017.33 588H1007.36L996.084 565.131C993.022 565.595 989.822 565.827 986.482 565.827H969.412V588H960.83V522.316H987.781C997.491 522.316 1004.74 523.646 1009.54 526.306C1015.38 529.522 1018.3 534.934 1018.3 542.541ZM987.642 558.034C994.569 558.034 999.702 557.076 1003.04 555.158C1007.15 552.777 1009.21 548.757 1009.21 543.098C1009.21 535.738 1004.45 531.563 994.924 530.573C992.172 530.264 989.342 530.109 986.436 530.109H969.412V558.034H987.642ZM1032.73 522.316H1081.76V530.109H1041.31V547.829H1077.35V555.622H1041.31V580.207H1082.69V588H1032.73V522.316ZM1096.28 522.316H1122.3C1131.08 522.316 1138.1 524.296 1143.36 528.254C1149.05 532.521 1151.9 538.66 1151.9 546.669C1151.9 555.019 1148.9 561.668 1142.9 566.616C1137.21 571.285 1129.91 573.62 1121 573.62H1104.86V588H1096.28V522.316ZM1122.16 565.827C1128.47 565.827 1133.45 564.25 1137.1 561.096C1140.9 557.818 1142.81 553.194 1142.81 547.226C1142.81 541.505 1140.67 537.145 1136.4 534.145C1132.57 531.455 1127.42 530.109 1120.96 530.109H1104.86V565.827H1122.16ZM1221.94 542.541C1221.94 552.282 1217.46 559.008 1208.49 562.719L1220.97 588H1210.99L1199.72 565.131C1196.66 565.595 1193.46 565.827 1190.12 565.827H1173.05V588H1164.47V522.316H1191.42C1201.13 522.316 1208.38 523.646 1213.17 526.306C1219.02 529.522 1221.94 534.934 1221.94 542.541ZM1191.28 558.034C1198.21 558.034 1203.34 557.076 1206.68 555.158C1210.79 552.777 1212.85 548.757 1212.85 543.098C1212.85 535.738 1208.09 531.563 1198.56 530.573C1195.81 530.264 1192.98 530.109 1190.07 530.109H1173.05V558.034H1191.28ZM1244.62 579.697C1241.41 576.759 1238.86 573.264 1236.97 569.213C1235.11 565.162 1234.19 561.08 1234.19 556.967C1234.19 552.854 1234.6 549.298 1235.44 546.298C1236.31 543.268 1237.53 540.485 1239.1 537.949C1240.68 535.382 1242.57 533.078 1244.76 531.037C1246.96 528.996 1249.4 527.264 1252.09 525.842C1257.72 522.873 1263.86 521.389 1270.51 521.389C1276.88 521.389 1282.82 522.811 1288.32 525.656C1293.67 528.439 1297.94 532.305 1301.12 537.253C1304.37 542.417 1305.99 548.154 1305.99 554.462C1305.99 564.451 1302.47 572.723 1295.42 579.279C1291 583.392 1285.66 586.222 1279.41 587.768C1276.29 588.541 1272.67 588.928 1268.56 588.928C1264.45 588.928 1260.24 588.124 1255.94 586.516C1251.64 584.877 1247.87 582.604 1244.62 579.697ZM1250.98 536.325C1248.6 538.583 1246.71 541.258 1245.32 544.35C1243.96 547.443 1243.28 550.844 1243.28 554.555C1243.28 558.266 1243.99 561.745 1245.41 564.992C1246.84 568.239 1248.78 571.069 1251.26 573.481C1256.55 578.645 1262.96 581.228 1270.51 581.228C1277.84 581.228 1284.05 578.815 1289.16 573.991C1294.32 569.105 1296.9 563.059 1296.9 555.854C1296.9 550.968 1295.66 546.438 1293.19 542.263C1290.87 538.304 1287.61 535.119 1283.4 532.707C1279.26 530.295 1275.02 529.089 1270.69 529.089C1266.36 529.089 1262.59 529.738 1259.38 531.037C1256.19 532.305 1253.39 534.068 1250.98 536.325Z" fill="white"/>
<path d="M215.741 662.074C215.741 667.201 213.381 670.741 208.661 672.694L215.229 686H209.979L204.047 673.964C202.436 674.208 200.751 674.33 198.993 674.33H190.009V686H185.492V651.43H199.677C204.787 651.43 208.604 652.13 211.127 653.529C214.203 655.222 215.741 658.07 215.741 662.074ZM199.604 670.229C203.249 670.229 205.951 669.724 207.709 668.715C209.874 667.462 210.956 665.346 210.956 662.367C210.956 658.493 208.45 656.296 203.437 655.775C201.988 655.613 200.499 655.531 198.969 655.531H190.009V670.229H199.604ZM223.334 651.43H249.14V655.531H227.851V664.857H246.82V668.959H227.851V681.898H249.628V686H223.334V651.43ZM266.913 655.531H253.925V651.43H284.418V655.531H271.43V686H266.913V655.531ZM294.916 681.63C293.223 680.084 291.881 678.244 290.888 676.112C289.911 673.98 289.423 671.832 289.423 669.667C289.423 667.502 289.643 665.631 290.082 664.052C290.538 662.457 291.181 660.992 292.011 659.657C292.841 658.306 293.834 657.094 294.989 656.02C296.145 654.945 297.431 654.034 298.847 653.285C301.809 651.723 305.04 650.941 308.539 650.941C311.892 650.941 315.017 651.69 317.914 653.188C320.73 654.652 322.976 656.687 324.652 659.291C326.361 662.009 327.216 665.028 327.216 668.349C327.216 673.606 325.36 677.96 321.649 681.41C319.322 683.575 316.514 685.064 313.227 685.878C311.583 686.285 309.678 686.488 307.514 686.488C305.349 686.488 303.135 686.065 300.873 685.219C298.611 684.356 296.625 683.16 294.916 681.63ZM298.261 658.803C297.007 659.991 296.015 661.399 295.282 663.026C294.566 664.654 294.208 666.444 294.208 668.397C294.208 670.351 294.582 672.182 295.331 673.891C296.08 675.6 297.105 677.089 298.407 678.358C301.19 681.076 304.568 682.436 308.539 682.436C312.396 682.436 315.668 681.166 318.354 678.627C321.072 676.055 322.431 672.873 322.431 669.081C322.431 666.509 321.78 664.125 320.478 661.928C319.257 659.844 317.54 658.168 315.326 656.898C313.145 655.629 310.915 654.994 308.637 654.994C306.358 654.994 304.372 655.336 302.68 656.02C301.003 656.687 299.53 657.615 298.261 658.803ZM334.296 651.43H338.812V669.325C338.812 675.608 340.904 679.669 345.087 681.508C346.519 682.126 348.212 682.436 350.165 682.436C352.118 682.436 353.778 682.151 355.146 681.581C356.529 681.011 357.668 680.189 358.563 679.115C360.305 677.048 361.176 674.029 361.176 670.058V651.43H365.692V669.325C365.692 677.61 362.706 682.94 356.732 685.316C354.747 686.098 352.452 686.488 349.848 686.488C347.243 686.488 344.973 686.114 343.036 685.365C341.116 684.6 339.512 683.51 338.227 682.094C335.606 679.229 334.296 675.217 334.296 670.058V651.43ZM401.874 658.607C399.172 656.199 395.697 654.994 391.449 654.994C387.592 654.994 384.32 656.264 381.635 658.803C378.917 661.358 377.558 664.54 377.558 668.349C377.558 672.287 378.957 675.624 381.757 678.358C384.54 681.076 387.917 682.436 391.889 682.436C394.77 682.436 397.642 681.703 400.507 680.238C401.353 679.815 402.086 679.351 402.704 678.847L404.462 682.216C402.069 684.267 398.985 685.593 395.209 686.195C393.988 686.391 392.735 686.488 391.449 686.488C388.894 686.488 386.485 686.065 384.223 685.219C381.96 684.356 379.975 683.16 378.266 681.63C376.573 680.084 375.23 678.244 374.237 676.112C373.261 673.98 372.772 671.832 372.772 669.667C372.772 667.502 372.992 665.631 373.432 664.052C373.887 662.457 374.53 660.992 375.36 659.657C376.19 658.306 377.183 657.094 378.339 656.02C379.494 654.945 380.78 654.034 382.196 653.285C385.159 651.723 388.389 650.941 391.889 650.941C396.625 650.941 400.71 652.292 404.145 654.994L401.874 658.607ZM410.346 651.43H414.862V670.204H436.078V651.43H440.595V686H436.078V674.306H414.862V686H410.346V651.43ZM449.604 651.43H454.12V686H449.604V651.43ZM463.129 651.43H467.084L489.35 678.725V651.43H493.378V686H489.594L467.157 658.51V686H463.129V651.43ZM503.656 678.163C502.891 676.861 502.297 675.453 501.874 673.939C501.451 672.41 501.239 670.774 501.239 669.032C501.239 667.291 501.459 665.631 501.898 664.052C502.354 662.457 502.997 660.992 503.827 659.657C504.657 658.306 505.65 657.094 506.806 656.02C507.961 654.945 509.247 654.034 510.663 653.285C513.625 651.723 516.856 650.941 520.355 650.941C525.499 650.941 529.755 652.374 533.124 655.238L530.585 658.705C527.737 656.231 524.18 654.994 519.916 654.994C516.059 654.994 512.787 656.264 510.102 658.803C507.383 661.358 506.024 664.54 506.024 668.349C506.024 672.499 507.367 675.884 510.053 678.505C512.722 681.125 516.132 682.436 520.282 682.436C523.424 682.436 526.231 681.516 528.705 679.677C529.405 679.156 529.999 678.611 530.487 678.041V674.306H518.5V670.204H535.004V686H530.487V682.655C528.632 684.332 526.15 685.495 523.041 686.146C521.902 686.374 520.575 686.488 519.062 686.488C517.548 686.488 516.01 686.301 514.447 685.927C512.885 685.536 511.436 684.983 510.102 684.267C508.767 683.534 507.546 682.655 506.439 681.63C505.349 680.604 504.421 679.449 503.656 678.163ZM580.585 681.898C577.574 684.942 573.879 686.464 569.501 686.464C565.969 686.464 563.072 685.642 560.81 683.998C558.336 682.191 557.099 679.709 557.099 676.552C557.099 672.385 559.312 668.959 563.739 666.273C562.307 664.158 561.591 662.318 561.591 660.756C561.591 659.177 561.843 657.785 562.348 656.581C562.852 655.377 563.552 654.359 564.447 653.529C566.303 651.804 568.785 650.941 571.894 650.941C575.36 650.941 578.469 652.048 581.22 654.262L578.949 657.875C577.387 656.508 575.531 655.613 573.383 655.189C572.732 655.059 572.089 654.994 571.454 654.994C569.859 654.994 568.614 655.425 567.719 656.288C566.824 657.134 566.376 658.355 566.376 659.95C566.376 662.571 569.802 666.778 576.654 672.572L580.048 675.404C581.334 672.67 581.977 669.594 581.977 666.176L586.542 666.127C586.542 670.619 585.517 674.615 583.466 678.114L590.277 683.266L587.274 686.708L580.585 681.898ZM577.313 679.408C572.431 675.583 568.76 672.279 566.303 669.496C564.008 670.766 562.624 672.214 562.152 673.842C561.973 674.428 561.884 675.16 561.884 676.039C561.884 676.918 562.112 677.764 562.567 678.578C563.023 679.392 563.625 680.084 564.374 680.653C565.92 681.825 567.613 682.411 569.452 682.411C572.659 682.411 575.279 681.41 577.313 679.408ZM185.492 710.43H199.677C204.966 710.43 209.223 711.911 212.445 714.873C215.782 717.933 217.45 722.026 217.45 727.153C217.45 732.573 215.741 736.911 212.323 740.166C208.954 743.389 204.511 745 198.993 745H185.492V710.43ZM199.604 740.898C203.656 740.898 206.854 739.678 209.198 737.236C211.509 734.827 212.665 731.564 212.665 727.446C212.665 723.475 211.387 720.317 208.832 717.974C206.342 715.679 203.054 714.531 198.969 714.531H190.009V740.898H199.604ZM234.687 714.531H221.698V710.43H252.191V714.531H239.203V745H234.687V714.531ZM258.344 710.43H272.04C276.662 710.43 280.357 711.471 283.124 713.555C286.119 715.801 287.616 719.032 287.616 723.247C287.616 727.642 286.037 731.141 282.88 733.745C279.885 736.203 276.044 737.432 271.356 737.432H262.86V745H258.344V710.43ZM271.967 733.33C275.287 733.33 277.908 732.5 279.828 730.84C281.83 729.115 282.831 726.681 282.831 723.54C282.831 720.529 281.708 718.234 279.462 716.655C277.444 715.239 274.734 714.531 271.332 714.531H262.86V733.33H271.967ZM309.442 737.212C312.47 739.165 315.546 740.451 318.671 741.069C319.729 741.281 320.803 741.387 321.894 741.387C322.984 741.387 324.107 741.289 325.263 741.094C326.435 740.882 327.468 740.54 328.363 740.068C330.382 738.994 331.391 737.342 331.391 735.112C331.391 732.817 329.698 731.214 326.312 730.303C325.32 730.042 324.262 729.806 323.139 729.595L319.647 728.984C315.204 728.219 312.104 727.096 310.346 725.615C308.718 724.264 307.904 722.441 307.904 720.146C307.904 717.021 309.402 714.491 312.396 712.554C315.066 710.812 318.215 709.941 321.845 709.941C325.328 709.941 328.461 710.511 331.244 711.65C332.237 712.041 333.271 712.529 334.345 713.115L332.685 717.095C330.325 715.679 327.541 714.759 324.335 714.336C323.326 714.189 322.349 714.116 321.405 714.116C319.241 714.116 317.328 714.531 315.668 715.361C313.731 716.338 312.763 717.689 312.763 719.414C312.763 721.237 313.992 722.572 316.449 723.418C317.556 723.809 318.809 724.126 320.209 724.37L324.555 725.127C328.217 725.811 330.756 726.584 332.172 727.446C333.588 728.309 334.63 729.277 335.297 730.352C335.98 731.41 336.322 732.826 336.322 734.6C336.322 736.357 335.907 737.936 335.077 739.336C334.247 740.736 333.14 741.891 331.757 742.803C329.055 744.609 325.613 745.513 321.43 745.513C317.523 745.513 313.853 744.666 310.419 742.974C309.296 742.42 308.254 741.785 307.294 741.069L309.442 737.212ZM344.135 710.43H357.831C362.453 710.43 366.148 711.471 368.915 713.555C371.91 715.801 373.407 719.032 373.407 723.247C373.407 727.642 371.828 731.141 368.671 733.745C365.676 736.203 361.835 737.432 357.147 737.432H348.651V745H344.135V710.43ZM357.758 733.33C361.078 733.33 363.699 732.5 365.619 730.84C367.621 729.115 368.622 726.681 368.622 723.54C368.622 720.529 367.499 718.234 365.253 716.655C363.235 715.239 360.525 714.531 357.123 714.531H348.651V733.33H357.758ZM380.023 710.43H405.829V714.531H384.54V723.857H403.51V727.959H384.54V740.898H406.317V745H380.023V710.43ZM441.425 717.607C438.723 715.199 435.248 713.994 431 713.994C427.143 713.994 423.871 715.264 421.186 717.803C418.467 720.358 417.108 723.54 417.108 727.349C417.108 731.287 418.508 734.624 421.308 737.358C424.091 740.076 427.468 741.436 431.439 741.436C434.32 741.436 437.193 740.703 440.058 739.238C440.904 738.815 441.636 738.351 442.255 737.847L444.013 741.216C441.62 743.267 438.536 744.593 434.76 745.195C433.539 745.391 432.286 745.488 431 745.488C428.445 745.488 426.036 745.065 423.773 744.219C421.511 743.356 419.525 742.16 417.816 740.63C416.124 739.084 414.781 737.244 413.788 735.112C412.812 732.98 412.323 730.832 412.323 728.667C412.323 726.502 412.543 724.631 412.982 723.052C413.438 721.457 414.081 719.992 414.911 718.657C415.741 717.306 416.734 716.094 417.89 715.02C419.045 713.945 420.331 713.034 421.747 712.285C424.709 710.723 427.94 709.941 431.439 709.941C436.176 709.941 440.261 711.292 443.695 713.994L441.425 717.607ZM449.896 710.43H454.413V745H449.896V710.43ZM475.702 710.43H478.266L493.231 745H488.3L485.028 737.432H467.719L464.179 745H459.54L475.702 710.43ZM483.271 733.33L480.146 726.079C479.755 725.168 479.372 724.224 478.998 723.247L478.021 720.488C477.403 718.698 477.037 717.477 476.923 716.826H476.63C476.5 717.477 476.207 718.405 475.751 719.609C475.751 719.609 475.336 720.667 474.506 722.783C474.132 723.695 473.725 724.622 473.285 725.566L469.647 733.33H483.271ZM498.334 710.43H502.851V740.898H521.698V745H498.334V710.43ZM527.826 710.43H532.343V745H527.826V710.43ZM542.304 737.212C545.331 739.165 548.407 740.451 551.532 741.069C552.59 741.281 553.664 741.387 554.755 741.387C555.845 741.387 556.968 741.289 558.124 741.094C559.296 740.882 560.329 740.54 561.225 740.068C563.243 738.994 564.252 737.342 564.252 735.112C564.252 732.817 562.559 731.214 559.174 730.303C558.181 730.042 557.123 729.806 556 729.595L552.509 728.984C548.065 728.219 544.965 727.096 543.207 725.615C541.579 724.264 540.766 722.441 540.766 720.146C540.766 717.021 542.263 714.491 545.258 712.554C547.927 710.812 551.076 709.941 554.706 709.941C558.189 709.941 561.322 710.511 564.105 711.65C565.098 712.041 566.132 712.529 567.206 713.115L565.546 717.095C563.186 715.679 560.403 714.759 557.196 714.336C556.187 714.189 555.211 714.116 554.267 714.116C552.102 714.116 550.189 714.531 548.529 715.361C546.592 716.338 545.624 717.689 545.624 719.414C545.624 721.237 546.853 722.572 549.311 723.418C550.417 723.809 551.671 724.126 553.07 724.37L557.416 725.127C561.078 725.811 563.617 726.584 565.033 727.446C566.449 728.309 567.491 729.277 568.158 730.352C568.842 731.41 569.184 732.826 569.184 734.6C569.184 736.357 568.769 737.936 567.938 739.336C567.108 740.736 566.002 741.891 564.618 742.803C561.916 744.609 558.474 745.513 554.291 745.513C550.385 745.513 546.715 744.666 543.28 742.974C542.157 742.42 541.116 741.785 540.155 741.069L542.304 737.212ZM587.128 714.531H574.14V710.43H604.633V714.531H591.645V745H587.128V714.531ZM611.737 737.212C614.765 739.165 617.841 740.451 620.966 741.069C622.024 741.281 623.098 741.387 624.188 741.387C625.279 741.387 626.402 741.289 627.558 741.094C628.729 740.882 629.763 740.54 630.658 740.068C632.676 738.994 633.686 737.342 633.686 735.112C633.686 732.817 631.993 731.214 628.607 730.303C627.615 730.042 626.557 729.806 625.434 729.595L621.942 728.984C617.499 728.219 614.398 727.096 612.641 725.615C611.013 724.264 610.199 722.441 610.199 720.146C610.199 717.021 611.697 714.491 614.691 712.554C617.361 710.812 620.51 709.941 624.14 709.941C627.623 709.941 630.756 710.511 633.539 711.65C634.532 712.041 635.565 712.529 636.64 713.115L634.979 717.095C632.619 715.679 629.836 714.759 626.63 714.336C625.621 714.189 624.644 714.116 623.7 714.116C621.535 714.116 619.623 714.531 617.963 715.361C616.026 716.338 615.058 717.689 615.058 719.414C615.058 721.237 616.286 722.572 618.744 723.418C619.851 723.809 621.104 724.126 622.504 724.37L626.85 725.127C630.512 725.811 633.051 726.584 634.467 727.446C635.883 728.309 636.924 729.277 637.592 730.352C638.275 731.41 638.617 732.826 638.617 734.6C638.617 736.357 638.202 737.936 637.372 739.336C636.542 740.736 635.435 741.891 634.052 742.803C631.35 744.609 627.908 745.513 623.725 745.513C619.818 745.513 616.148 744.666 612.714 742.974C611.591 742.42 610.549 741.785 609.589 741.069L611.737 737.212Z" fill="white"/>
<defs>
<linearGradient id="paint0_linear" x1="592" y1="0" x2="592" y2="499" gradientUnits="userSpaceOnUse">
<stop stop-color="#FD65B7" stop-opacity="0.57"/>
<stop offset="0.524862" stop-color="#6D3AE1" stop-opacity="0.89"/>
<stop offset="1" stop-color="#1B99CC"/>
</linearGradient>
</defs>
</svg>
