<?xml version="1.0" encoding="UTF-8"?>
<svg width="46px" height="46px" viewBox="0 0 46 46" version="1.1" xmlns="http://www.w3.org/2000/svg" xmlns:xlink="http://www.w3.org/1999/xlink">
    <!-- Generator: Sketch 51.2 (57519) - http://www.bohemiancoding.com/sketch -->
    <title>Retouch icon</title>
    <desc>Created with Sketch.</desc>
    <defs></defs>
    <g id="Page-1" stroke="none" stroke-width="1" fill="none" fill-rule="evenodd">
        <g id="Group" transform="translate(-169.000000, -170.000000)" fill-rule="nonzero">
            <g id="Retouching" transform="translate(59.000000, 119.000000)">
                <g id="Retouch-icon" transform="translate(98.000000, 38.000000)">
                    <circle id="Oval-Copy" cx="35" cy="35" r="35"></circle>
                    <g id="paint-palette" transform="translate(12.000000, 13.000000)" fill="#8B8B8B" fill-opacity="0.894644475">
                        <circle id="Oval" cx="31" cy="21" r="1"></circle>
                        <path d="M30.1991323,25.0104569 C29.6869683,24.9331196 29.2095178,25.2931055 29.1336173,25.8140599 C28.877207,27.5739378 27.4136133,29.0335256 25.2185981,29.7185954 C22.8724387,30.4508687 19.615849,30.2054108 17.6292082,28.0064931 C17.2786963,27.6185666 16.6851903,27.5930099 16.3036239,27.949086 C15.9219637,28.3053529 15.8967261,28.9086034 16.2471442,29.2964345 C17.3971911,30.5694018 18.9592021,31.4369916 20.7643009,31.8053692 C21.4017147,31.9354409 22.0629588,32 22.7285186,32 C23.7565994,32 24.7948127,31.8459928 25.7694159,31.5417928 C28.6731482,30.635582 30.6247003,28.5988725 30.9897543,26.0934661 C31.0656548,25.5725117 30.7116715,25.0876036 30.1991323,25.0104569 Z" id="Shape"></path>
                        <path d="M43.1543501,17.1072383 C41.5088789,15.2141406 39.2378461,13.9866953 36.5042056,13.4937227 C39.1214247,11.7408711 41.378878,9.99646484 42.9884994,8.47433203 C45.4426741,6.15357812 46.2655908,4.52273438 45.5784689,3.34227734 C44.8138535,2.02750391 42.6066443,2.03657813 38.631839,3.37111719 C35.2734518,4.49865625 31.0897036,6.45698047 26.8514563,8.88545703 C26.1193411,9.30484766 25.3941062,9.73430078 24.684533,10.1670781 C24.1582827,8.69211328 24.5053743,7.00727344 25.6665106,5.54632422 C26.5362313,4.45202734 26.7304179,3.06214453 26.1733875,1.91888281 C25.5894697,0.720636719 24.3079286,0.003234375 22.7431195,0 L22.7005705,0 C17.1777041,0 11.7756952,2.16262891 7.48973873,6.08951953 C3.19844099,10.0212617 0.571263648,15.2260898 0.0921794821,20.7451016 C-0.484224313,27.3917422 1.65662647,33.7108125 6.12020259,38.538207 C10.5049272,43.2803398 16.7211619,46 23.1749471,46 C26.6494842,46 29.911276,45.3691172 32.8695212,44.1246914 C35.5745542,42.9868203 37.9766742,41.3620859 40.0092513,39.2954102 C41.893812,37.3791328 43.379679,35.1731992 44.4255708,32.7387031 C45.4208564,30.4221719 45.9645789,27.9672812 45.998256,25.6395195 C46.0472327,22.2543867 45.0638065,19.3040078 43.1543501,17.1072383 Z M24.7903624,12.2176719 C25.7485307,11.6179648 26.7464417,11.0204141 27.7566647,10.4416406 C31.6753414,8.19626563 35.5775417,6.34683203 38.7445488,5.2339375 C42.2308547,4.00891797 43.6582395,4.08887891 43.9910273,4.24700391 C43.9622388,4.45607031 43.7006075,5.38622266 41.4128267,7.47706641 C39.502465,9.223 36.7127865,11.2761992 33.5577294,13.2584219 C32.5603616,13.8852617 31.5223459,14.5082383 30.4726519,15.109832 C29.0255316,15.9387305 27.5794977,16.7138125 26.1602607,17.4234883 C25.8770832,16.6033047 25.5141488,15.8073789 25.0724535,15.0480195 C24.6443377,14.3121094 24.1477812,13.6212109 23.5927425,12.9819727 C23.9855517,12.726457 24.3852411,12.4709414 24.7903624,12.2176719 Z M24.5200401,18.2204922 C21.9637477,19.4235898 19.6181183,20.3408047 17.7449644,20.8728594 C17.6474637,20.4080977 17.4760001,19.9588789 17.2327463,19.5403867 C17.0021667,19.1437266 16.7129237,18.7891133 16.3785968,18.4832852 C17.7809048,17.1402109 19.7546374,15.5841172 22.0787207,13.9921758 C22.6182788,14.590625 23.0966387,15.2452266 23.5044759,15.9462773 C23.9262546,16.6713164 24.2657417,17.4339102 24.5200401,18.2204922 Z M44.1878393,25.6137344 C44.0587437,34.5539063 35.9882758,44.203125 23.1749471,44.203125 C17.2269524,44.203125 11.4970442,41.6955859 7.45434154,37.3234297 C3.33767596,32.8713125 1.36385281,27.0383867 1.89616855,20.8992734 C2.81042989,10.3661719 12.1432465,1.796875 22.7005705,1.796875 L22.7412184,1.796875 C23.6073178,1.79867187 24.2642027,2.12821875 24.5433063,2.70115234 C24.7999586,3.22781641 24.6884257,3.87541016 24.2448293,4.43351953 C22.6132091,6.48644922 22.204014,9.01132813 23.1258799,11.1401758 C22.6405491,11.4504961 22.1635472,11.7621641 21.7026595,12.0713164 C21.7004868,12.0727539 21.6983141,12.0741914 21.6962319,12.0756289 C18.817472,14.0034063 16.3865634,15.9209414 14.7691565,17.534625 C13.5424765,17.1185586 12.1946675,17.2398477 11.0491023,17.8960664 C9.16825338,18.9742813 6.69859804,23.998793 6.22268242,24.9950703 C6.09521634,25.2617266 6.10798105,25.5735742 6.25663113,25.8291797 C6.40537173,26.0847852 6.67107695,26.251625 6.9674718,26.2755234 C7.46783049,26.3157734 8.88869708,26.4174766 10.4701637,26.4174766 C12.3892163,26.4174766 14.5445518,26.2676172 15.5756872,25.6765352 C16.692645,25.036668 17.4668566,23.9675273 17.7350061,22.7384648 C19.9550706,22.1601406 22.8557387,21.0287383 25.9973069,19.50975 C27.7574795,18.6595586 29.5677151,17.7028125 31.3779507,16.6660156 C32.2961954,16.1397109 33.2040291,15.5971445 34.0863334,15.0499063 C34.0916746,15.0501758 34.0968348,15.0509844 34.1021761,15.0511641 C41.6477517,15.2658906 44.2596295,20.64825 44.1878393,25.6137344 Z M16.0239912,21.9551172 C15.9660521,22.8586758 15.4601711,23.6679883 14.6703884,24.1204414 C13.8142472,24.6112578 10.8731122,24.6773828 8.45822747,24.5677734 C9.56948184,22.4381172 11.0975358,19.9435156 11.9545823,19.45225 C12.7637384,18.9886562 13.7420044,18.9683516 14.5719824,19.3980742 C15.0281625,19.6338242 15.4058532,19.9934687 15.6644065,20.4382852 C15.9333708,20.9009805 16.0576684,21.4254883 16.0239912,21.9551172 Z" id="Shape"></path>
                        <path d="M15.5,6 C13.5701,6 12,7.5701 12,9.5 C12,11.4299 13.5701,13 15.5,13 C17.4299,13 19,11.4299 19,9.5 C19,7.5701 17.4299,6 15.5,6 Z M15.5,11.25 C14.53505,11.25 13.75,10.46495 13.75,9.5 C13.75,8.53505 14.53505,7.75 15.5,7.75 C16.46495,7.75 17.25,8.53505 17.25,9.5 C17.25,10.46495 16.46495,11.25 15.5,11.25 Z" id="Shape"></path>
                        <path d="M11.5,30 C9.5701,30 8,31.5701 8,33.5 C8,35.4299 9.5701,37 11.5,37 C13.4299,37 15,35.4299 15,33.5 C15,31.5701 13.4299,30 11.5,30 Z M11.5,35.25 C10.53505,35.25 9.75,34.46495 9.75,33.5 C9.75,32.53505 10.53505,31.75 11.5,31.75 C12.46495,31.75 13.25,32.53505 13.25,33.5 C13.25,34.46495 12.46495,35.25 11.5,35.25 Z" id="Shape"></path>
                        <path d="M19.5,35 C17.5701,35 16,36.5701 16,38.5 C16,40.4299 17.5701,42 19.5,42 C21.4299,42 23,40.4299 23,38.5 C23,36.5701 21.4299,35 19.5,35 Z M19.5,40.25 C18.53505,40.25 17.75,39.46495 17.75,38.5 C17.75,37.53505 18.53505,36.75 19.5,36.75 C20.46495,36.75 21.25,37.53505 21.25,38.5 C21.25,39.46495 20.46495,40.25 19.5,40.25 Z" id="Shape"></path>
                        <path d="M31.5,33 C29.5701,33 28,34.5701 28,36.5 C28,38.4299 29.5701,40 31.5,40 C33.4299,40 35,38.4299 35,36.5 C35,34.5701 33.4299,33 31.5,33 Z M31.5,38.25 C30.53505,38.25 29.75,37.46495 29.75,36.5 C29.75,35.53505 30.53505,34.75 31.5,34.75 C32.46495,34.75 33.25,35.53505 33.25,36.5 C33.25,37.46495 32.46495,38.25 31.5,38.25 Z" id="Shape"></path>
                        <path d="M38.5,24 C36.5701,24 35,25.5701 35,27.5 C35,29.4299 36.5701,31 38.5,31 C40.4299,31 42,29.4299 42,27.5 C42,25.5701 40.4299,24 38.5,24 Z M38.5,29.25 C37.53505,29.25 36.75,28.46495 36.75,27.5 C36.75,26.53505 37.53505,25.75 38.5,25.75 C39.46495,25.75 40.25,26.53505 40.25,27.5 C40.25,28.46495 39.46495,29.25 38.5,29.25 Z" id="Shape"></path>
                    </g>
                </g>
            </g>
        </g>
    </g>
</svg>