<?xml version="1.0" encoding="UTF-8"?>
<svg width="48px" height="45px" viewBox="0 0 48 45" version="1.1" xmlns="http://www.w3.org/2000/svg" xmlns:xlink="http://www.w3.org/1999/xlink">
    <!-- Generator: Sketch 51.2 (57519) - http://www.bohemiancoding.com/sketch -->
    <title>Desktop Icon</title>
    <desc>Created with Sketch.</desc>
    <defs></defs>
    <g id="Page-1" stroke="none" stroke-width="1" fill="none" fill-rule="evenodd">
        <g id="Group" transform="translate(-490.000000, -173.000000)" fill-rule="nonzero">
            <g id="DTP-" transform="translate(379.000000, 119.000000)">
                <g id="Desktop-Icon" transform="translate(100.000000, 38.000000)">
                    <circle id="Oval" cx="35" cy="35" r="35"></circle>
                    <g id="desktop" transform="translate(11.000000, 16.000000)" fill="#8B8B8B" fill-opacity="0.894644475">
                        <path d="M44.1702128,0 L3.82978723,0 C1.71799149,0 0,1.70120225 0,3.79213483 L0,34.1292135 C0,36.2201461 1.71799149,37.9213483 3.82978723,37.9213483 L18.6382979,37.9213483 L18.6382979,43.4831461 L13.2765957,43.4831461 C12.853583,43.4831461 12.5106383,43.8227191 12.5106383,44.241573 C12.5106383,44.660427 12.853583,45 13.2765957,45 L34.7234043,45 C35.146417,45 35.4893617,44.660427 35.4893617,44.241573 C35.4893617,43.8227191 35.146417,43.4831461 34.7234043,43.4831461 L29.3617021,43.4831461 L29.3617021,37.9213483 L44.1702128,37.9213483 C46.2820085,37.9213483 48,36.2201461 48,34.1292135 L48,3.79213483 C48,1.70120225 46.2820085,0 44.1702128,0 Z M27.8297872,43.4831461 L20.1702128,43.4831461 L20.1702128,37.9213483 L27.8297872,37.9213483 L27.8297872,43.4831461 Z M46.4680851,34.1292135 C46.4680851,35.3837528 45.4373106,36.4044944 44.1702128,36.4044944 L3.82978723,36.4044944 C2.56268936,36.4044944 1.53191489,35.3837528 1.53191489,34.1292135 L1.53191489,31.8539326 L46.4680851,31.8539326 L46.4680851,34.1292135 Z M46.4680851,30.3370787 L1.53191489,30.3370787 L1.53191489,3.79213483 C1.53191489,2.53759551 2.56268936,1.51685393 3.82978723,1.51685393 L44.1702128,1.51685393 C45.4373106,1.51685393 46.4680851,2.53759551 46.4680851,3.79213483 L46.4680851,30.3370787 Z" id="Shape"></path>
                        <path d="M44.2317073,3 L3.76829268,3 C3.34399024,3 3,3.34238431 3,3.76470588 L3,28.2352941 C3,28.6576157 3.34399024,29 3.76829268,29 L37.0609756,29 C37.485278,29 37.8292683,28.6576157 37.8292683,28.2352941 C37.8292683,27.8129725 37.485278,27.4705882 37.0609756,27.4705882 L4.53658537,27.4705882 L4.53658537,4.52941176 L43.4634146,4.52941176 L43.4634146,27.4705882 L40.1341463,27.4705882 C39.7098439,27.4705882 39.3658537,27.8129725 39.3658537,28.2352941 C39.3658537,28.6576157 39.7098439,29 40.1341463,29 L44.2317073,29 C44.6560098,29 45,28.6576157 45,28.2352941 L45,3.76470588 C45,3.34238431 44.6560098,3 44.2317073,3 Z" id="Shape"></path>
                    </g>
                    <g id="open-book-top-view" transform="translate(23.000000, 23.000000)" fill="#8B8B8B" fill-opacity="0.894644475">
                        <path d="M22.0899701,2.19539057 L22.0899701,0.762639792 L21.88165,0.681677085 C21.8085553,0.653484713 20.1061781,0 17.8358546,0 C15.4032607,0 13.3083646,0.733001658 11.6030636,2.1787643 C9.89849361,0.733001658 7.80286659,0 5.37027268,0 C3.0992182,0 1.39684103,0.653484713 1.32593911,0.681677085 L1.11542617,0.762639792 L1.11542617,2.0898499 C0.428335346,2.21707701 0,2.44478462 0,2.81634562 C0,4.75077603 0,16.4918144 0,16.4918144 L10.1850251,16.4918144 C10.5373419,16.8033763 11.05266,17 11.6286468,17 C12.2053645,17 12.7199517,16.8033763 13.0722685,16.4918144 L23,16.4918144 C23,16.4918144 23,3.49513118 23,2.81634562 C22.9992691,2.51418123 22.6520689,2.31683463 22.0899701,2.19539057 Z M11.4926905,15.4132755 C10.647715,15.0670154 7.7356194,13.9732959 4.81913812,13.9732959 C3.66643361,13.9732959 2.64529969,14.1482332 1.77620289,14.4937705 L1.77620289,1.2151635 C2.28348058,1.04745503 3.66643361,0.652038951 5.36954173,0.652038951 C7.60916545,0.652038951 9.53375072,1.32214993 11.1052882,2.6276736 L11.1052882,10.5540673 L11.4926905,10.1319046 L11.4926905,15.4132755 Z M21.4284625,14.4973849 C20.4950423,14.1258239 19.422742,13.9393205 18.234952,13.9393205 C15.3199326,13.9393205 12.5459861,15.0438831 11.7105129,15.4067696 L11.7105129,10.1304588 L12.1001081,10.5540673 L12.1001081,2.6276736 C13.6709146,1.32142705 15.5954999,0.652038951 17.8351236,0.652038951 C19.5323842,0.652038951 20.9204538,1.04817791 21.4284625,1.2151635 L21.4284625,14.4973849 Z" id="Shape"></path>
                        <path d="M3,2.36518022 L3.13745668,3.01016771 C6.59592565,1.87163251 9.70744513,3.97901738 9.73905282,4 L10,3.41704808 C9.86695369,3.32490701 6.67163709,1.15731115 3,2.36518022 Z" id="Shape"></path>
                        <path d="M3,4.36542934 L3.13745668,5.01067862 C6.59592565,3.87076865 9.70744513,5.97900886 9.73905282,6 L10,5.41772413 C9.86695369,5.32463301 6.67163709,3.15707002 3,4.36542934 Z" id="Shape"></path>
                        <path d="M3,5.36488261 L3.13745668,6.00998752 C6.59592565,4.87215751 9.70744513,6.97901356 9.73905282,7 L10,6.41694196 C9.86695369,6.32478411 6.67163709,4.1577061 3,5.36488261 Z" id="Shape"></path>
                        <path d="M3,7.36555259 L3.13745668,8.01039317 C6.59592565,6.87211729 9.70744513,8.97902216 9.73905282,9 L10,8.41809294 C9.86695369,8.3241487 6.67163709,6.15704655 3,7.36555259 Z" id="Shape"></path>
                        <path d="M3,8.36463385 L3.13745668,9.00947705 C6.59592565,7.87210863 9.70744513,9.97810999 9.73905282,10 L10,9.4162664 C9.86695369,9.32505803 6.67163709,7.15794705 3,8.36463385 Z" id="Shape"></path>
                        <path d="M3,10.3651392 L3.13745668,11.010503 C6.59592565,9.87130357 9.70744513,11.9790051 9.73905282,12 L10,11.416708 C9.86695369,11.3245131 6.67163709,9.15747827 3,10.3651392 Z" id="Shape"></path>
                        <path d="M3,11.3657194 L3.13745668,12.0099417 C6.59592565,10.8711465 9.70744513,12.9790126 9.73905282,13 L10,12.4187399 C9.86695369,12.3247528 6.67163709,10.156662 3,11.3657194 Z" id="Shape"></path>
                        <path d="M13.2609472,4 C13.2925549,3.97901241 16.4033393,1.87204038 19.8618083,3.00993303 L20,2.36479261 C16.3276278,1.15754965 13.1330463,3.32565945 13,3.41782237 L13.2609472,4 Z" id="Shape"></path>
                        <path d="M13,5.41798701 L13.2609472,6 C13.2925549,5.97901834 16.4033393,3.87172993 19.8618083,5.01112526 L20,4.36525505 C16.3276278,3.15744125 13.1330463,5.32402566 13,5.41798701 Z" id="Shape"></path>
                        <path d="M13,6.41706973 L13.2609472,7 C13.2925549,6.97810591 16.4033393,4.87171155 19.8618083,6.00929222 L20,5.36432868 C16.3276278,4.15832897 13.1330463,6.32493208 13,6.41706973 Z" id="Shape"></path>
                        <path d="M13,8.41796556 L13.2609472,9 C13.2925549,8.97901757 16.4033393,6.87256377 19.8618083,8.01108882 L20,7.36610708 C16.3276278,6.15642422 13.1330463,8.32400075 13,8.41796556 Z" id="Shape"></path>
                        <path d="M13,9.41632522 L13.2609472,10 C13.2925549,9.97902419 16.4033393,7.87232303 19.8618083,9.00957686 L20,8.36479862 C16.3276278,7.15823341 13.1330463,9.32330205 13,9.41632522 Z" id="Shape"></path>
                        <path d="M13,11.4177241 L13.2609472,12 C13.2925549,11.9790089 16.4033393,9.87168131 19.8618083,11.0106786 L20,10.3654293 C16.3276278,9.15707002 13.1330463,11.324633 13,11.4177241 Z" id="Shape"></path>
                        <path d="M13,12.4185754 L13.2609472,13 C13.2925549,12.9808322 16.4033393,10.8705439 19.8618083,12.0105742 L20,11.3652568 C16.3276278,10.15677 13.1330463,12.3263872 13,12.4185754 Z" id="Shape"></path>
                    </g>
                </g>
            </g>
        </g>
    </g>
</svg>